<?xml version="1.0" encoding="utf-8"?>
<!-- Generator: Adobe Illustrator 24.1.2, SVG Export Plug-In . SVG Version: 6.00 Build 0)  -->
<svg version="1.1" id="Camada_1" xmlns="http://www.w3.org/2000/svg" xmlns:xlink="http://www.w3.org/1999/xlink" x="0px" y="0px"
	 viewBox="0 0 300 100" style="enable-background:new 0 0 300 100;" xml:space="preserve">
<style type="text/css">
	.st0{fill-rule:evenodd;clip-rule:evenodd;fill:#FFFFFF;stroke:#4D4D4D;stroke-width:3;stroke-miterlimit:10;}
	.st1{fill-rule:evenodd;clip-rule:evenodd;fill:#33BB44;}
	.st2{fill-rule:evenodd;clip-rule:evenodd;fill:#4D4D4D;}
	.st3{fill:#4D4D4D;}
</style>
<path class="st0" d="M277.5,97.5H23.3C12.6,97.5,3.8,88.8,3.8,78V23c0-10.7,8.7-19.4,19.4-19.4h254.2c10.7,0,19.4,8.7,19.4,19.4v55
	C296.9,88.8,288.2,97.5,277.5,97.5z"/>
<path class="st1" d="M58.2,7c-0.3,0-0.6,0-1,0c-4.8,8.5-7.5,21.6,4.3,37.3C76,63.6,71.8,82,61.7,93.6c16-3.1,28.6-21.2,28.9-43.2
	C90.9,26.4,76.5,7,58.2,7z"/>
<path class="st1" d="M50.6,47.8c0,0-15.8-18.9,2.7-40.3c-15.9,3.2-28.4,21.3-28.7,43.1c-0.3,23.4,13.5,42.5,31,43.3
	C61.9,84.6,65.9,69.2,50.6,47.8z"/>
<g>
	<path class="st2" d="M107.7,69.1h4.7V55h3.7c4.6,0,8.7-0.1,11.8-2c2.9-1.7,4.8-4.8,4.8-8.9c0-4.2-2.1-7.1-5.2-8.8
		c-3.1-1.7-6.7-1.9-10.5-1.9h-9.3V69.1L107.7,69.1z M112.3,50.9V37.7h4.2c3.3,0,6,0,8.1,1.1c2,1,3.3,2.9,3.3,5.5
		c0,2.4-1.1,4.2-2.9,5.3c-2,1.2-4.3,1.3-8.5,1.3H112.3L112.3,50.9z M137.7,69.1h4.4V53.3c1.5-2.6,3.8-4.3,7.1-4.3
		c0.5,0,1.1,0,1.7,0.2v-4.4c-0.5-0.1-1.1-0.2-1.6-0.2c-2.9,0-5.5,1.4-7.2,3.8l-0.1,0v-3.5h-4.4V69.1L137.7,69.1z M153.5,57
		c0,7.1,5.5,12.6,12.8,12.6c7.3,0,12.8-5.5,12.8-12.6c0-7.1-5.5-12.6-12.8-12.6C159,44.3,153.5,49.9,153.5,57L153.5,57z M158,57
		c0-4.9,3.5-8.6,8.4-8.6c4.8,0,8.4,3.7,8.4,8.6s-3.5,8.6-8.4,8.6C161.5,65.6,158,61.9,158,57L158,57z M183.3,51.4
		c0,10.4,7.8,18.3,18.7,18.3c3.7,0,7.6-0.9,10.5-2.8v-5.2c-2.8,2.3-6.3,3.6-10.2,3.6c-8.5,0-14.2-6.1-14.2-14c0-7.9,5.7-14,13.8-14
		c3.8,0,7.4,1.3,10.1,3.3v-5.1c-2.8-1.6-6.3-2.5-10-2.5C190.7,32.9,183.3,41.2,183.3,51.4L183.3,51.4z M225.4,69.6
		c3.2,0,6.1-1.4,7.4-2.7h0.1c0.9,1.7,2.8,2.6,4.7,2.6c0.9,0,1.8-0.2,2.4-0.4v-3.7c-0.4,0.2-0.9,0.3-1.4,0.3c-1.3,0-1.9-1.1-1.9-2.6
		V52.9c0-3-1-5.1-2.4-6.3c-1.7-1.6-4.3-2.2-7.2-2.2c-3.6,0-6.2,0.9-8.1,2.1v4.3c1.8-1.3,4.4-2.4,7.4-2.4c2.1,0,3.5,0.5,4.5,1.3
		c0.9,0.9,1.4,2.2,1.4,4v2c-1.6-0.4-3.3-0.6-5.2-0.6c-2.5,0-5,0.4-6.8,1.6c-1.9,1.2-3.2,3.2-3.2,5.9c0,2.4,1,4.2,2.6,5.4
		C221.3,69.1,223.5,69.6,225.4,69.6L225.4,69.6z M226.2,65.7c-2.6,0-4.6-1.2-4.6-3.5c0-2.9,3-3.7,6-3.7c1.5,0,3.4,0.2,4.7,0.6v4.5
		C230.8,64.8,228.5,65.7,226.2,65.7L226.2,65.7z M246.1,69.1h4.4V48.9h6.2v-4h-6.2v-5.3c0-2.6,0.5-4.6,3.6-4.6
		c0.9,0,2.5,0.2,3.4,0.4v-4c-0.8-0.2-2.3-0.5-3.6-0.5c-2.1,0-4.1,0.5-5.7,2c-1.7,1.7-2.2,4.1-2.2,7.3v4.6h-3.8v4h3.8V69.1
		L246.1,69.1z M282.9,58.3c0.1-0.6,0.1-1.5,0.1-2.2c0-7.6-5.1-11.7-11-11.7c-6.5,0-12.1,5-12.1,12.6c0,7.6,5.6,12.6,13.1,12.6
		c3.1,0,6.5-0.9,8.7-2.3v-4.7c-2.2,1.7-5,3-8.4,3c-4.8,0-8.3-2.6-9-7.4H282.9L282.9,58.3z M271.9,48.3c2.9,0,6.4,1.6,6.8,6.4h-14.3
		C265.2,50.3,268.7,48.3,271.9,48.3z"/>
	<g>
		<path class="st3" d="M280.6,34.7l-6.6,7h-3.4l4.8-7H280.6z"/>
	</g>
</g>
</svg>
