<?xml version="1.0" encoding="utf-8"?>
<!-- Generator: Adobe Illustrator 24.1.2, SVG Export Plug-In . SVG Version: 6.00 Build 0)  -->
<svg version="1.1" id="Camada_1" xmlns="http://www.w3.org/2000/svg" xmlns:xlink="http://www.w3.org/1999/xlink" x="0px" y="0px"
	 viewBox="0 0 300 100" style="enable-background:new 0 0 300 100;" xml:space="preserve">
<style type="text/css">
	.st0{fill-rule:evenodd;clip-rule:evenodd;fill:#33BB44;stroke:#33BB44;stroke-width:3;stroke-miterlimit:10;}
	.st1{fill-rule:evenodd;clip-rule:evenodd;fill:#FFFFFF;stroke:#33BB44;stroke-width:0.216;stroke-miterlimit:10;}
	.st2{fill-rule:evenodd;clip-rule:evenodd;fill:#FFFFFF;}
	.st3{fill:#FFFFFF;}
</style>
<path class="st0" d="M277.5,97.5H23.3C12.6,97.5,3.8,88.8,3.8,78V23c0-10.7,8.7-19.4,19.4-19.4h254.2c10.7,0,19.4,8.7,19.4,19.4v55
	C296.9,88.8,288.2,97.5,277.5,97.5z"/>
<path class="st1" d="M129.5,65.7h3.8V54.2h3c3.7,0,7.1-0.1,9.7-1.7c2.3-1.4,3.9-3.9,3.9-7.3c0-3.4-1.7-5.8-4.2-7.2
	c-2.5-1.4-5.5-1.5-8.6-1.5h-7.6V65.7L129.5,65.7z M133.4,50.8V40h3.5c2.7,0,4.9,0,6.6,0.9c1.7,0.8,2.7,2.3,2.7,4.5
	c0,2-0.9,3.4-2.3,4.3c-1.6,1-3.5,1.1-7,1.1H133.4L133.4,50.8z M154.2,65.7h3.6V52.8c1.2-2.1,3.1-3.5,5.8-3.5c0.4,0,0.9,0,1.4,0.2
	v-3.6c-0.4-0.1-0.9-0.2-1.3-0.2c-2.3,0-4.5,1.2-5.9,3.1l-0.1,0v-2.9h-3.6V65.7L154.2,65.7z M167.1,55.8c0,5.8,4.5,10.4,10.5,10.4
	c6,0,10.5-4.5,10.5-10.4c0-5.8-4.5-10.4-10.5-10.4C171.6,45.4,167.1,49.9,167.1,55.8L167.1,55.8z M170.7,55.8c0-4,2.9-7.1,6.9-7.1
	c3.9,0,6.9,3.1,6.9,7.1s-2.9,7.1-6.9,7.1C173.6,62.8,170.7,59.8,170.7,55.8L170.7,55.8z M191.5,51.2c0,8.5,6.4,15,15.3,15
	c3.1,0,6.2-0.8,8.6-2.3v-4.2c-2.3,1.9-5.2,2.9-8.4,2.9c-7,0-11.6-5-11.6-11.5c0-6.5,4.7-11.5,11.3-11.5c3.1,0,6.1,1.1,8.3,2.7v-4.2
	c-2.3-1.3-5.2-2.1-8.2-2.1C197.6,36.1,191.5,42.9,191.5,51.2L191.5,51.2z M226,66.1c2.7,0,5-1.1,6.1-2.2h0.1
	c0.8,1.4,2.3,2.1,3.8,2.1c0.8,0,1.5-0.2,1.9-0.4v-3c-0.3,0.2-0.8,0.3-1.2,0.3c-1.1,0-1.5-0.9-1.5-2.1v-8.4c0-2.5-0.8-4.2-2-5.2
	c-1.4-1.3-3.5-1.8-5.9-1.8c-2.9,0-5.1,0.8-6.6,1.7v3.5c1.5-1.1,3.6-2,6.1-2c1.7,0,2.9,0.4,3.7,1.1c0.8,0.7,1.1,1.8,1.1,3.3v1.7
	c-1.3-0.3-2.7-0.5-4.2-0.5c-2.1,0-4.1,0.4-5.6,1.3c-1.6,1-2.6,2.6-2.6,4.8c0,1.9,0.8,3.4,2.1,4.4C222.6,65.7,224.4,66.1,226,66.1
	L226,66.1z M226.6,62.9c-2.1,0-3.8-1-3.8-2.9c0-2.3,2.4-3.1,4.9-3.1c1.2,0,2.8,0.2,3.9,0.5v3.7C230.4,62.1,228.5,62.9,226.6,62.9
	L226.6,62.9z M242.9,65.7h3.6V49.1h5.1v-3.3h-5.1v-4.3c0-2.1,0.4-3.8,2.9-3.8c0.8,0,2.1,0.2,2.8,0.4v-3.3c-0.7-0.2-1.9-0.4-3-0.4
	c-1.7,0-3.4,0.4-4.6,1.7c-1.4,1.4-1.8,3.4-1.8,6v3.8h-3.1v3.3h3.1V65.7L242.9,65.7z M273,56.8c0.1-0.5,0.1-1.2,0.1-1.8
	c0-6.2-4.2-9.6-9-9.6c-5.3,0-9.9,4.1-9.9,10.4c0,6.2,4.6,10.4,10.7,10.4c2.6,0,5.3-0.7,7.1-1.9v-3.9c-1.8,1.4-4.1,2.5-6.9,2.5
	c-3.9,0-6.8-2.1-7.3-6H273L273,56.8z M264,48.7c2.4,0,5.3,1.3,5.6,5.3h-11.7C258.6,50.3,261.4,48.7,264,48.7z"/>
<path class="st2" d="M61.2,7c-0.3,0-0.6,0-1,0c-4.8,8.5-7.5,21.6,4.3,37.3C79,63.6,74.8,82,64.7,93.6c16-3.1,28.6-21.2,28.9-43.2
	C93.9,26.4,79.5,7,61.2,7z"/>
<path class="st2" d="M53.6,47.8c0,0-15.8-18.9,2.7-40.3c-15.9,3.2-28.4,21.3-28.7,43.1c-0.3,23.4,13.5,42.5,31,43.3
	C64.9,84.6,68.9,69.2,53.6,47.8z"/>
<g>
	<path class="st3" d="M271.2,37.5l-5.4,5.7h-2.8l3.9-5.7H271.2z"/>
</g>
</svg>
