<?xml version="1.0" encoding="utf-8"?>
<!-- Generator: Adobe Illustrator 24.1.2, SVG Export Plug-In . SVG Version: 6.00 Build 0)  -->
<svg version="1.1" id="Camada_1" xmlns="http://www.w3.org/2000/svg" xmlns:xlink="http://www.w3.org/1999/xlink" x="0px" y="0px"
	 viewBox="0 0 205 129" style="enable-background:new 0 0 205 129;" xml:space="preserve">
<style type="text/css">
	.st0{opacity:2.000000e-02;}
	.st1{fill-rule:evenodd;clip-rule:evenodd;fill:#CCFFCC;}
	.st2{fill:#666666;}
</style>
<g class="st0">
	<g>
		<path class="st1" d="M56.1,124.6c7-8.2,24.9-34.9-0.7-68.9c-16.6-22.1-12.5-40.5-6.1-52c0.4,0,0.8,0,1.2,0h0.1
			c10.1,0,19.7,4.2,27.6,12.3C89.6,27.5,96,45.2,95.7,64.4C95.3,94.1,78.3,119.9,56.1,124.6z"/>
		<path class="st2" d="M50.6,3.9c10.1,0,19.5,4.2,27.4,12.2c11.4,11.5,17.7,29.1,17.5,48.3c-0.2,14.7-4.4,28.9-11.9,40
			c-7.1,10.5-16.5,17.5-26.8,19.9c13-15.6,19.2-41.5-1.2-68.7C39.1,33.7,43.1,15.4,49.4,3.9c0.4,0,0.7,0,1.1,0L50.6,3.9 M50.6,3.4
			c0,0-0.1,0-0.1,0c-0.5,0-0.9,0-1.4,0c-6.7,12-10.5,30.4,6,52.4c20.3,27.1,14.4,53,0.2,69.2c22.5-4.3,40.2-29.9,40.6-60.7
			C96.5,30.7,76.2,3.4,50.6,3.4L50.6,3.4z"/>
	</g>
	<g>
		<path class="st1" d="M46.7,125.4C22,124.1,3,97.5,3.5,64.7C3.9,35.1,20.8,9.4,42.9,4.5c-25,29.7-3.5,56.2-3.3,56.4
			C61,90.8,55.3,112.5,46.7,125.4z"/>
		<path class="st2" d="M42.2,4.9C29.6,20.2,29.4,34.5,31.5,43.8c2.3,10.4,7.9,17.2,7.9,17.2c21.3,29.7,15.7,51.2,7.2,64.1
			c-11.7-0.7-22.6-7.2-30.6-18.3C7.9,95.4,3.5,80.5,3.7,64.7c0.2-14.6,4.4-28.8,11.8-39.9C22.6,14.4,32,7.4,42.2,4.9 M43.6,4.1
			L43.6,4.1L43.6,4.1z M43.6,4.1C21.2,8.6,3.7,34,3.2,64.7c-0.5,32.9,18.9,59.7,43.6,60.9c8.8-13.1,14.4-34.9-7.1-64.9
			C39.8,60.8,17.6,34.2,43.6,4.1L43.6,4.1z"/>
	</g>
</g>
<g class="st0">
	<g>
		<path class="st1" d="M159.3,66.2c7.2-8.5,26-36.4-0.7-71.9c-17.3-23-13-42.2-6.3-54.3c0.4,0,0.8,0,1.3,0l0.1,0
			c10.6,0,20.5,4.4,28.8,12.8c11.9,12.1,18.6,30.5,18.3,50.5C200.3,34.4,182.5,61.3,159.3,66.2z"/>
		<path class="st2" d="M153.7-59.7c10.5,0,20.4,4.4,28.6,12.7c11.9,12,18.5,30.4,18.2,50.4c-0.2,15.3-4.6,30.2-12.4,41.7
			C180.7,56,170.7,63.3,160,65.8c7.6-9.2,25.1-36.7-1.2-71.7c-17.2-22.9-13-41.9-6.4-53.9c0.4,0,0.7,0,1.1,0L153.7-59.7 M153.7-60.2
			c0,0-0.1,0-0.1,0c-0.5,0-0.9,0-1.4,0c-7,12.5-11,31.7,6.3,54.7c21.2,28.3,15.1,55.2,0.2,72.1c23.5-4.5,41.9-31.2,42.4-63.3
			C201.5-31.8,180.3-60.2,153.7-60.2L153.7-60.2z"/>
	</g>
	<g>
		<path class="st1" d="M149.6,67c-25.8-1.4-45.6-29.1-45.1-63.3c0.4-30.9,18.1-57.7,41.1-62.8c-26.1,31-3.7,58.6-3.4,58.9
			C164.5,30.9,158.6,53.5,149.6,67z"/>
		<path class="st2" d="M145-58.7c-13.2,16-13.4,30.9-11.3,40.6c2.4,10.8,8.2,17.9,8.3,17.9c22.2,31,16.4,53.4,7.5,66.9
			c-12.2-0.7-23.6-7.5-32-19.1c-8.5-11.8-13-27.4-12.8-43.9c0.2-15.3,4.6-30,12.4-41.6C124.4-48.8,134.3-56.1,145-58.7 M146.3-59.5
			L146.3-59.5L146.3-59.5z M146.3-59.5c-23.4,4.7-41.6,31.2-42.1,63.2C103.7,38.1,124,66,149.8,67.3c9.2-13.7,15-36.4-7.4-67.7
			C142.4-0.4,119.2-28.1,146.3-59.5L146.3-59.5z"/>
	</g>
</g>
<g class="st0">
	<g>
		<path class="st1" d="M159.3,199.2c7.2-8.5,26-36.4-0.7-71.9c-17.3-23-13-42.2-6.3-54.3c0.4,0,0.8,0,1.3,0l0.1,0
			c10.6,0,20.5,4.4,28.8,12.8c11.9,12.1,18.6,30.5,18.3,50.5C200.3,167.4,182.5,194.3,159.3,199.2z"/>
		<path class="st2" d="M153.7,73.3c10.5,0,20.4,4.4,28.6,12.7c11.9,12,18.5,30.4,18.2,50.4c-0.2,15.3-4.6,30.2-12.4,41.7
			c-7.4,10.9-17.3,18.3-28.1,20.8c13.5-16.3,20.1-43.3-1.2-71.7c-17.2-22.9-13-41.9-6.4-53.9c0.4,0,0.7,0,1.1,0L153.7,73.3
			 M153.7,72.8c0,0-0.1,0-0.1,0c-0.5,0-0.9,0-1.4,0c-7,12.5-11,31.7,6.3,54.7c21.2,28.3,15.1,55.2,0.2,72.1
			c23.5-4.5,41.9-31.2,42.4-63.3C201.5,101.2,180.3,72.8,153.7,72.8L153.7,72.8z"/>
	</g>
	<g>
		<path class="st1" d="M149.6,200c-25.8-1.4-45.6-29.1-45.1-63.3c0.4-30.9,18.1-57.7,41.1-62.8c-26.1,31-3.7,58.6-3.4,58.9
			C164.5,163.9,158.6,186.5,149.6,200z"/>
		<path class="st2" d="M145,74.3c-13.2,16-13.4,30.9-11.3,40.6c2.4,10.8,8.2,17.9,8.3,17.9c22.2,31,16.4,53.4,7.5,66.9
			c-12.2-0.7-23.6-7.5-32-19.1c-8.5-11.8-13-27.4-12.8-43.9c0.2-15.3,4.6-30,12.4-41.6C124.4,84.2,134.3,76.9,145,74.3 M146.3,73.5
			L146.3,73.5L146.3,73.5z M146.3,73.5c-23.4,4.7-41.6,31.2-42.1,63.2c-0.5,34.4,19.7,62.3,45.5,63.6c9.2-13.7,15-36.4-7.4-67.7
			C142.4,132.6,119.2,104.9,146.3,73.5L146.3,73.5z"/>
	</g>
</g>
</svg>
