<?xml version="1.0" encoding="utf-8"?>
<!-- Generator: Adobe Illustrator 24.1.2, SVG Export Plug-In . SVG Version: 6.00 Build 0)  -->
<svg version="1.1" id="Camada_1" xmlns="http://www.w3.org/2000/svg" xmlns:xlink="http://www.w3.org/1999/xlink" x="0px" y="0px"
	 viewBox="0 0 199 129" style="enable-background:new 0 0 199 129;" xml:space="preserve">
<style type="text/css">
	.st0{fill-rule:evenodd;clip-rule:evenodd;fill:none;stroke:#000000;stroke-miterlimit:10;}
</style>
<g>
	<path class="st0" d="M50.5,0.8c-0.5,0-0.9,0-1.4,0c-7,12.5-11,31.7,6.3,54.7c21.2,28.3,15.1,55.2,0.2,72.1
		c23.5-4.5,41.9-31.2,42.4-63.3C98.5,29.1,77.2,0.7,50.5,0.8z"/>
	<path class="st0" d="M39.4,60.6c0,0-23.2-27.7,3.9-59.1C19.9,6.2,1.7,32.7,1.2,64.7C0.7,99.1,21,127,46.8,128.3
		C55.9,114.6,61.8,91.9,39.4,60.6z"/>
</g>
<g>
	<path class="st0" d="M149.5-58.2c-0.5,0-0.9,0-1.4,0c-7,12.5-11,31.7,6.3,54.7c21.2,28.3,15.1,55.2,0.2,72.1
		c23.5-4.5,41.9-31.2,42.4-63.3C197.5-29.9,176.2-58.3,149.5-58.2z"/>
	<path class="st0" d="M138.4,1.6c0,0-23.2-27.7,3.9-59.1c-23.4,4.7-41.6,31.2-42.1,63.2C99.7,40.1,120,68,145.8,69.3
		C154.9,55.6,160.8,32.9,138.4,1.6z"/>
</g>
<g>
	<path class="st0" d="M149.5,70.8c-0.5,0-0.9,0-1.4,0c-7,12.5-11,31.7,6.3,54.7c21.2,28.3,15.1,55.2,0.2,72.1
		c23.5-4.5,41.9-31.2,42.4-63.3C197.5,99.1,176.2,70.7,149.5,70.8z"/>
	<path class="st0" d="M138.4,130.6c0,0-23.2-27.7,3.9-59.1c-23.4,4.7-41.6,31.2-42.1,63.2c-0.5,34.4,19.7,62.3,45.5,63.6
		C154.9,184.6,160.8,161.9,138.4,130.6z"/>
</g>
</svg>
