<?xml version="1.0" encoding="utf-8"?>
<!-- Generator: Adobe Illustrator 24.1.2, SVG Export Plug-In . SVG Version: 6.00 Build 0)  -->
<svg version="1.1" id="Camada_1" xmlns="http://www.w3.org/2000/svg" xmlns:xlink="http://www.w3.org/1999/xlink" x="0px" y="0px"
	 viewBox="0 0 300 300" style="enable-background:new 0 0 300 300;" xml:space="preserve">
<style type="text/css">
	.st0{fill-rule:evenodd;clip-rule:evenodd;fill:#33BB44;}
	.st1{fill:#33BB44;}
	.st2{fill-rule:evenodd;clip-rule:evenodd;fill:#FFFFFF;}
	.st3{fill:#FFFFFF;}
</style>
<g>
	<circle class="st0" cx="150" cy="150.5" r="148.5"/>
	<path class="st1" d="M150,3.5c39.3,0,76.2,15.3,103.9,43.1c27.8,27.8,43.1,64.7,43.1,103.9s-15.3,76.2-43.1,103.9
		s-64.7,43.1-103.9,43.1s-76.2-15.3-103.9-43.1C18.3,226.7,3,189.8,3,150.5S18.3,74.3,46.1,46.6C73.8,18.8,110.7,3.5,150,3.5
		 M150,0.5C67.2,0.5,0,67.7,0,150.5s67.2,150,150,150s150-67.2,150-150S232.8,0.5,150,0.5L150,0.5z"/>
</g>
<g>
	<path class="st2" d="M150.5,27.8c-0.5,0-0.9,0-1.4,0c-7,12.5-11,31.7,6.3,54.7c21.2,28.3,15.1,55.2,0.2,72.1
		c23.5-4.5,41.9-31.2,42.4-63.3C198.5,56.1,177.2,27.7,150.5,27.8z"/>
	<path class="st2" d="M139.4,87.6c0,0-23.2-27.7,3.9-59.1c-23.4,4.7-41.6,31.2-42.1,63.2c-0.5,34.4,19.7,62.3,45.5,63.6
		C155.9,141.6,161.8,118.9,139.4,87.6z"/>
</g>
<g>
	<path class="st2" d="M37.7,229.5h6v-18.1h4.7c5.9,0,11.2-0.2,15.2-2.6c3.7-2.2,6.2-6.2,6.2-11.4c0-5.4-2.7-9.1-6.6-11.3
		c-4-2.2-8.7-2.4-13.5-2.4h-12V229.5L37.7,229.5z M43.7,206.1v-17h5.4c4.3,0,7.7,0.1,10.4,1.5c2.6,1.3,4.2,3.7,4.2,7.1
		c0,3.1-1.4,5.4-3.7,6.8c-2.5,1.5-5.6,1.7-10.9,1.7H43.7L43.7,206.1z M76.3,229.5H82v-20.2c2-3.4,4.9-5.5,9.2-5.5
		c0.7,0,1.5,0.1,2.2,0.3v-5.6c-0.7-0.2-1.4-0.3-2-0.3c-3.7,0-7.1,1.8-9.2,4.9l-0.1-0.1v-4.6h-5.7V229.5L76.3,229.5z M96.6,213.9
		c0,9.2,7,16.3,16.4,16.3c9.4,0,16.4-7.1,16.4-16.3c0-9.2-7-16.3-16.4-16.3C103.6,197.6,96.6,204.7,96.6,213.9L96.6,213.9z
		 M102.3,213.9c0-6.3,4.6-11.1,10.8-11.1c6.2,0,10.8,4.8,10.8,11.1S119.2,225,113,225C106.8,225,102.3,220.2,102.3,213.9
		L102.3,213.9z M134.9,206.7c0,13.4,10.1,23.5,24,23.5c4.8,0,9.8-1.2,13.5-3.5V220c-3.6,2.9-8.1,4.6-13.2,4.6
		c-10.9,0-18.3-7.8-18.3-18c0-10.2,7.3-18,17.8-18c4.9,0,9.6,1.7,13,4.2v-6.6c-3.6-2-8.1-3.2-12.9-3.2
		C144.4,183,134.9,193.7,134.9,206.7L134.9,206.7z M189,230.2c4.2,0,7.8-1.8,9.5-3.4h0.1c1.2,2.2,3.5,3.3,6,3.3c1.2,0,2.3-0.3,3-0.6
		v-4.7c-0.5,0.3-1.2,0.4-1.8,0.4c-1.7,0-2.4-1.4-2.4-3.3v-13.2c0-3.9-1.3-6.5-3.1-8.2c-2.2-2-5.5-2.8-9.3-2.8c-4.6,0-8,1.2-10.4,2.7
		v5.6c2.3-1.7,5.6-3.1,9.6-3.1c2.7,0,4.6,0.6,5.8,1.7c1.2,1.1,1.8,2.8,1.8,5.1v2.6c-2-0.5-4.2-0.8-6.6-0.8c-3.2,0-6.4,0.6-8.7,2.1
		c-2.5,1.6-4.1,4.1-4.1,7.6c0,3,1.3,5.4,3.3,6.9C183.7,229.5,186.5,230.2,189,230.2L189,230.2z M190,225.1c-3.4,0-5.9-1.5-5.9-4.6
		c0-3.7,3.8-4.8,7.7-4.8c2,0,4.4,0.3,6.1,0.8v5.8C195.9,223.9,193,225.1,190,225.1L190,225.1z M215.6,229.5h5.7v-26h8v-5.1h-8v-6.8
		c0-3.3,0.7-5.9,4.6-5.9c1.2,0,3.2,0.3,4.4,0.6v-5.1c-1.1-0.3-2.9-0.6-4.7-0.6c-2.7,0-5.3,0.7-7.3,2.6c-2.2,2.2-2.8,5.3-2.8,9.4v5.9
		h-4.9v5.1h4.9V229.5L215.6,229.5z M262.8,215.5c0.1-0.8,0.2-1.9,0.2-2.8c0-9.7-6.6-15.1-14.2-15.1c-8.3,0-15.5,6.5-15.5,16.3
		c0,9.8,7.2,16.3,16.8,16.3c4,0,8.3-1.1,11.1-2.9v-6.1c-2.8,2.1-6.4,3.9-10.8,3.9c-6.1,0-10.7-3.4-11.5-9.5H262.8L262.8,215.5z
		 M248.7,202.8c3.7,0,8.3,2.1,8.8,8.3h-18.3C240.2,205.3,244.6,202.8,248.7,202.8z"/>
	<g>
		<path class="st3" d="M259.9,185.2l-8.5,9H247l6.1-9H259.9z"/>
	</g>
</g>
</svg>
